<svg width="204" height="52" viewBox="0 0 204 52" fill="none" xmlns="http://www.w3.org/2000/svg">
<path d="M194.191 17.3067V12.778H192.417V11.9579H196.952V12.778H195.179V17.3067H194.195H194.191ZM202.607 17.3067V13.5381H202.587L200.953 17.2627H200.276L198.646 13.5381H198.618V17.3067H197.725V11.9579H198.865L200.602 15.9585H200.63L202.36 11.9579H203.499V17.3067H202.607Z" fill="white"/>
<path d="M64.588 12.2739C69.3102 12.2739 72.5858 15.4944 72.5858 20.2512C72.5858 25.0079 69.2146 28.2284 64.4087 28.2284H59.6029V36.1096H55.3589V12.2739H64.588ZM59.6029 24.7959H63.4523C66.4968 24.7959 68.2741 23.1436 68.2741 20.2552C68.2741 17.3667 66.5128 15.7625 63.4683 15.7625H59.6029V24.7999V24.7959Z" fill="white"/>
<path d="M75.1362 14.0742C75.1362 12.818 76.1404 11.8258 77.4076 11.8258C78.6749 11.8258 79.695 12.818 79.695 14.0742C79.695 15.3303 78.6908 16.3025 77.4076 16.3025C76.1245 16.3025 75.1362 15.3103 75.1362 14.0742ZM75.3674 18.6028H79.4639V36.1135H75.3674V18.6028Z" fill="white"/>
<path d="M82.7712 37.4337H86.8359C87.2782 38.7699 88.7766 39.6821 90.7172 39.6821C93.3832 39.6821 94.9134 38.1778 94.9134 35.9495V32.9931H94.8138C93.9092 34.8773 91.8529 36.1335 89.3504 36.1335C85.0387 36.1335 82.1775 32.749 82.1775 27.2962C82.1775 21.8433 84.9749 18.3108 89.4341 18.3108C91.9167 18.3108 93.9251 19.599 94.9293 21.6153H94.9971V18.6108H99.0099V35.8415C99.0099 40.0221 95.6705 42.7305 90.5857 42.7305C86.274 42.7305 83.1817 40.5182 82.7712 37.4457V37.4337ZM94.9174 27.3082C94.9174 23.9037 93.2238 21.6913 90.6057 21.6913C87.9875 21.6913 86.3776 23.8716 86.3776 27.3082C86.3776 30.7447 88.0234 32.857 90.6057 32.857C93.1879 32.857 94.9174 30.7247 94.9174 27.3082Z" fill="white"/>
<path d="M108.49 36.1096L100.229 12.2739H104.904L110.925 31.5329H111.025L117.046 12.2739H121.621L113.36 36.1096H108.49Z" fill="white"/>
<path d="M123.286 14.0742C123.286 12.818 124.291 11.8258 125.558 11.8258C126.825 11.8258 127.845 12.818 127.845 14.0742C127.845 15.3303 126.841 16.3025 125.558 16.3025C124.275 16.3025 123.286 15.3103 123.286 14.0742ZM123.517 18.6028H127.614V36.1135H123.517V18.6028Z" fill="white"/>
<path d="M137.799 18.2388C141.896 18.2388 144.677 20.4512 144.777 23.6917H140.959C140.828 22.1874 139.628 21.2633 137.72 21.2633C135.911 21.2633 134.727 22.1234 134.727 23.3956C134.727 24.3878 135.516 25.0479 137.23 25.4599L140.338 26.1521C143.825 26.9762 145.191 28.3324 145.191 30.9248C145.191 34.2293 142.147 36.4576 137.74 36.4576C133.332 36.4576 130.583 34.2773 130.304 30.9568H134.336C134.584 32.557 135.819 33.4492 137.891 33.4492C139.963 33.4492 141.115 32.6411 141.115 31.3329C141.115 30.3087 140.473 29.7646 138.78 29.3325L135.604 28.5884C132.38 27.8283 130.75 26.1441 130.75 23.6157C130.75 20.4112 133.563 18.2308 137.807 18.2308L137.799 18.2388Z" fill="white"/>
<path d="M147.67 14.0742C147.67 12.818 148.674 11.8258 149.942 11.8258C151.209 11.8258 152.229 12.818 152.229 14.0742C152.229 15.3303 151.225 16.3025 149.942 16.3025C148.658 16.3025 147.67 15.3103 147.67 14.0742ZM147.901 18.6028H151.998V36.1135H147.901V18.6028Z" fill="white"/>
<path d="M154.716 27.3562C154.716 21.7073 158.071 18.2388 163.156 18.2388C168.24 18.2388 171.596 21.6913 171.596 27.3562C171.596 33.021 168.272 36.4576 163.156 36.4576C158.039 36.4576 154.716 33.037 154.716 27.3562ZM167.432 27.3562C167.432 23.6396 165.754 21.5073 163.152 21.5073C160.55 21.5073 158.872 23.6396 158.872 27.3562C158.872 31.0727 160.55 33.2051 163.152 33.2051C165.754 33.2051 167.432 31.0887 167.432 27.3562Z" fill="white"/>
<path d="M174.23 18.6029H178.163V21.6074H178.247C179.183 19.5271 181.044 18.2709 183.726 18.2709C187.575 18.2709 189.763 20.7473 189.763 24.7959V36.1096H185.667V25.62C185.667 23.1436 184.515 21.7554 182.18 21.7554C179.845 21.7554 178.33 23.4557 178.33 25.9681V36.1096H174.234V18.5989L174.23 18.6029Z" fill="white"/>
<path fill-rule="evenodd" clip-rule="evenodd" d="M30.3095 16.6746C31.7959 16.6746 32.9993 17.8827 32.9993 19.371V19.431V19.435V19.447V19.507V19.515V19.523V19.579H32.9954V19.639L32.9914 19.643V19.655C32.8479 21.0152 31.7042 22.0714 30.3175 22.0714C28.8351 22.0714 27.6276 20.8632 27.6276 19.371C27.6276 18.4908 28.05 17.7067 28.7036 17.2146H28.7076L28.7115 17.2066C28.7434 17.1826 28.7793 17.1586 28.8112 17.1346L28.859 17.1026H28.867V17.0946L28.9188 17.0626L28.9267 17.0586L28.9626 17.0346L28.9865 17.0186H28.9945L29.0184 17.0026L29.0303 16.9946L29.0423 16.9866L29.0662 16.9746L29.0861 16.9626H29.0901L29.114 16.9466L29.1379 16.9346H29.1419L29.1618 16.9226L29.1977 16.9066H29.2017L29.2136 16.8986L29.2615 16.8746C29.2933 16.8586 29.3292 16.8466 29.3651 16.8346L29.385 16.8266H29.393L29.4448 16.8066L29.5085 16.7866L29.5683 16.7666H29.5723L29.6281 16.7506H29.6361L29.6879 16.7386H29.7038L29.7556 16.7226H29.7596C29.7994 16.7146 29.8433 16.7066 29.8831 16.6986H29.8951L29.9509 16.6866H29.9548L30.0186 16.6786H30.0226H30.0385H30.0903V16.6746H30.1461L30.1541 16.6706H30.1621H30.2179H30.2218H30.2338H30.2936L30.3095 16.6746ZM45.7831 24.5838C47.8672 24.5838 49.5568 26.28 49.5568 28.3724C49.5568 30.4647 47.8672 32.1609 45.7831 32.1609C43.6989 32.1609 42.0093 30.4647 42.0093 28.3724C42.0093 26.28 43.6989 24.5838 45.7831 24.5838ZM28.588 32.549C29.6161 32.549 30.453 33.3891 30.453 34.4213C30.453 35.4535 29.6161 36.2936 28.588 36.2936C27.5599 36.2936 26.7231 35.4535 26.7231 34.4213C26.7231 33.3891 27.5559 32.549 28.588 32.549ZM23.8858 46.7512C24.7425 46.7512 25.4399 47.4513 25.4399 48.3114C25.4399 49.1716 24.7425 49.8717 23.8858 49.8717C23.029 49.8717 22.3316 49.1716 22.3316 48.3114C22.3316 47.4513 23.029 46.7512 23.8858 46.7512ZM41.7981 40.5502C42.4038 40.5502 42.894 41.0423 42.894 41.6504C42.894 42.2585 42.4038 42.7506 41.7981 42.7506C41.1924 42.7506 40.7062 42.2585 40.7062 41.6504C40.7062 41.0423 41.1964 40.5502 41.7981 40.5502ZM11.6161 35.0254C13.9553 35.0254 15.8521 36.9297 15.8521 39.278C15.8521 41.6264 13.9553 43.5307 11.6161 43.5307C9.27696 43.5307 7.38012 41.6264 7.38012 39.278C7.38012 36.9297 9.27696 35.0254 11.6161 35.0254ZM3.73788 23.7317C4.63051 23.7317 5.35178 24.4558 5.35178 25.3519C5.35178 26.248 4.63051 26.9721 3.73788 26.9721C2.84525 26.9721 2.12398 26.248 2.12398 25.3519C2.12398 24.4558 2.84525 23.7317 3.73788 23.7317ZM45.4483 13.7621C46.054 13.7621 46.5442 14.2542 46.5442 14.8583C46.5442 15.4624 46.054 15.9585 45.4483 15.9585C44.8426 15.9585 44.3525 15.4664 44.3525 14.8583C44.3525 14.2502 44.8426 13.7621 45.4483 13.7621ZM37.331 5.50485C37.8411 5.50485 38.2595 5.92091 38.2595 6.43299C38.2595 6.94507 37.845 7.36513 37.331 7.36513C36.8169 7.36513 36.4065 6.94907 36.4065 6.43299C36.4065 5.91691 36.8209 5.50485 37.331 5.50485ZM26.3764 2.13233C27.4085 2.13233 28.2413 2.97246 28.2413 4.00462C28.2413 5.03678 27.4045 5.8769 26.3764 5.8769C25.3482 5.8769 24.5114 5.03678 24.5114 4.00462C24.5114 2.97246 25.3482 2.13233 26.3764 2.13233ZM14.3857 13.9822C14.1466 14.3182 13.8636 14.6182 13.5448 14.8783L15.872 19.723C16.2387 19.639 16.6172 19.591 17.0117 19.591C18.7332 19.591 20.2515 20.4711 21.1441 21.8034L25.5435 20.0791C25.5076 19.8511 25.4917 19.611 25.4917 19.371C25.4917 19.1029 25.5116 18.8389 25.5555 18.5829L20.7138 16.5906L14.3857 13.9822ZM10.6119 8.72934C12.0027 8.72934 13.1304 9.86152 13.1304 11.2617C13.1304 12.6619 12.0027 13.7941 10.6119 13.7941C9.22117 13.7941 8.08944 12.6619 8.08944 11.2617C8.08944 9.86152 9.22117 8.72934 10.6119 8.72934ZM40.2201 26.3841L33.8322 22.6635C33.0671 23.4876 32.0191 24.0437 30.8435 24.1757L30.0983 30.7087C30.8276 31.0088 31.4532 31.5208 31.8915 32.1649L39.9491 29.2925C39.9013 28.9925 39.8774 28.6844 39.8774 28.3724C39.8774 27.6763 39.9969 27.0042 40.2201 26.3841ZM21.4151 26.9081L26.3485 31.1008C26.8227 30.7767 27.3686 30.5527 27.9544 30.4607L28.6996 23.9277C27.7193 23.5796 26.8864 22.9235 26.3126 22.0754L21.9252 23.8037C21.965 24.0557 21.985 24.3157 21.985 24.5798C21.985 25.4199 21.7777 26.212 21.4151 26.9041M17.3505 36.5096L24.5951 34.3733C24.6031 33.7972 24.7306 33.2451 24.9577 32.753L20.0244 28.5604C19.1875 29.1965 18.1474 29.5765 17.0157 29.5765C16.7886 29.5765 16.5654 29.5605 16.3463 29.5325L14.8001 33.7452C15.9039 34.3853 16.8005 35.3534 17.3544 36.5136M25.153 36.4616L17.9402 38.5739C17.9641 38.802 17.9801 39.038 17.9801 39.274C17.9801 42.8026 15.1308 45.659 11.6201 45.659C8.10937 45.659 5.26013 42.7986 5.26013 39.274C5.26013 35.7495 8.10937 32.8891 11.6201 32.8891C12.0186 32.8891 12.4051 32.9251 12.7797 32.9971L14.3259 28.7844C13.3217 28.1323 12.5645 27.1282 12.2298 25.944L7.38012 26.224C6.9896 27.8763 5.5072 29.1085 3.74187 29.1085C1.67766 29.1085 0 27.4282 0 25.3519C0 23.2756 1.67368 21.5953 3.74187 21.5953C5.35975 21.5953 6.73456 22.6235 7.25659 24.0637L12.1103 23.7837C12.3135 22.5235 12.983 21.4193 13.9393 20.6592L11.6121 15.8144C11.2933 15.8864 10.9586 15.9224 10.6199 15.9224C8.05358 15.9224 5.96945 13.8341 5.96945 11.2537C5.96945 8.67333 8.05358 6.58501 10.6199 6.58501C13.1862 6.58501 15.2663 8.67333 15.2663 11.2537C15.2663 11.4978 15.2464 11.7418 15.2105 11.9778L21.6064 14.6102L26.3564 16.6066C26.8028 15.9625 27.4005 15.4304 28.1018 15.0703L26.2967 8.00923C24.1289 7.96123 22.3874 6.18495 22.3874 4.00062C22.3874 1.81628 24.1727 0 26.3764 0C28.58 0 30.3693 1.79628 30.3693 4.00862C30.3693 5.48884 29.5683 6.78504 28.3768 7.48115L30.186 14.5422C30.2258 14.5422 30.2697 14.5422 30.3095 14.5422C30.7598 14.5422 31.1981 14.6062 31.6126 14.7183L35.0237 8.4373C34.5614 7.90122 34.2825 7.20111 34.2825 6.43699C34.2825 4.74473 35.6493 3.37252 37.335 3.37252C39.0206 3.37252 40.3874 4.74473 40.3874 6.43699C40.3874 8.12925 39.0206 9.50146 37.335 9.50146C37.1915 9.50146 37.052 9.48946 36.9126 9.47346L33.5014 15.7544C33.8999 16.1065 34.2387 16.5265 34.5017 16.9946L42.2325 14.6903C42.3201 12.982 43.7268 11.6258 45.4483 11.6258C47.1698 11.6258 48.6721 13.074 48.6721 14.8583C48.6721 16.6426 47.2296 18.0948 45.4483 18.0948C44.3804 18.0948 43.4319 17.5707 42.8461 16.7626L35.1154 19.0669C35.1193 19.1669 35.1273 19.271 35.1273 19.371C35.1273 19.8671 35.0516 20.3431 34.9161 20.7912L41.308 24.5118C42.3919 23.2476 43.9938 22.4435 45.787 22.4435C49.0467 22.4435 51.6888 25.0959 51.6888 28.3684C51.6888 31.6409 49.0467 34.2933 45.787 34.2933C43.5953 34.2933 41.6865 33.0971 40.6664 31.3168L32.5809 34.1613C32.5849 34.2453 32.5889 34.3333 32.5889 34.4173C32.5889 34.7253 32.553 35.0254 32.4893 35.3134L39.6542 39.234C40.2241 38.722 40.9772 38.4099 41.8061 38.4099C43.5834 38.4099 45.0299 39.8581 45.0299 41.6424C45.0299 43.4267 43.5874 44.8789 41.8061 44.8789C40.0248 44.8789 38.5862 43.4307 38.5862 41.6424C38.5862 41.4704 38.5982 41.2984 38.6261 41.1343L31.4572 37.2137C30.7319 37.9618 29.7197 38.4259 28.596 38.4259C28.5243 38.4259 28.4485 38.4259 28.3768 38.4179L26.0456 45.307C26.9701 45.9791 27.5758 47.0712 27.5758 48.3034C27.5758 50.3437 25.9261 52 23.8937 52C21.8614 52 20.2117 50.3437 20.2117 48.3034C20.2117 46.2631 21.8614 44.6069 23.8937 44.6069C23.9296 44.6069 23.9695 44.6069 24.0053 44.6069L26.3365 37.7178C25.8583 37.3898 25.4558 36.9537 25.157 36.4496M17.0157 21.7233C18.5858 21.7233 19.861 23.0035 19.861 24.5798C19.861 26.156 18.5858 27.4362 17.0157 27.4362C15.4457 27.4362 14.1705 26.156 14.1705 24.5798C14.1705 23.0035 15.4457 21.7233 17.0157 21.7233Z" fill="white"/>
</svg>
