<svg width="108" height="109" viewBox="0 0 108 109" fill="none" xmlns="http://www.w3.org/2000/svg">
<path fill-rule="evenodd" clip-rule="evenodd" d="M63.3517 34.9817C66.4529 34.9817 68.9627 37.508 68.9627 40.6457V40.7744V40.8066V40.9193V40.9514V41.0641V41.1928V41.225C68.659 44.0731 66.2771 46.2936 63.3836 46.2936C60.2824 46.2936 57.7567 43.7673 57.7567 40.6457C57.7567 38.7952 58.6359 37.154 60.0106 36.1242C60.0746 36.0759 60.1545 36.0276 60.2185 35.9793L60.3144 35.915H60.3304L60.4423 35.8506L60.5222 35.8023L60.5702 35.7702H60.5861L60.6341 35.738H60.6661L60.698 35.7058L60.746 35.6736H60.794V35.6414L60.8419 35.6092L60.8899 35.5771L60.9378 35.5449L61.0178 35.5127H61.0337L61.1297 35.4644C61.1297 35.4644 61.2735 35.4001 61.3375 35.384H61.3694V35.3679L61.4814 35.3357L61.6092 35.2874L61.7371 35.2552L61.849 35.2231L61.9609 35.1909H61.9929L62.1048 35.1587C62.1847 35.1426 62.2806 35.1265 62.3606 35.1104H62.4725V35.0943H62.6004H62.6323H62.7442H62.8721H62.8881H63H63.1599L63.3517 34.9817ZM95.6909 51.5554C100.039 51.5554 103.572 55.1115 103.572 59.5043C103.572 63.8971 100.039 67.4371 95.6909 67.4371C91.3428 67.4371 87.794 63.881 87.794 59.5043C87.794 55.1275 91.3268 51.5554 95.6909 51.5554ZM59.7549 68.2417C61.913 68.2417 63.6554 69.9956 63.6554 72.1679C63.6554 74.3401 61.913 76.094 59.7549 76.094C57.5968 76.094 55.8544 74.3401 55.8544 72.1679C55.8544 69.9956 57.5968 68.2417 59.7549 68.2417ZM49.9236 98.0099C51.714 98.0099 53.1687 99.4742 53.1687 101.276C53.1687 103.079 51.714 104.543 49.9236 104.543C48.1332 104.543 46.6785 103.079 46.6785 101.276C46.6785 99.4742 48.1332 98.0099 49.9236 98.0099ZM87.3623 85.0084C88.6252 85.0084 89.6483 86.0382 89.6483 87.3094C89.6483 88.5806 88.6252 89.6104 87.3623 89.6104C86.0995 89.6104 85.0764 88.5806 85.0764 87.3094C85.0764 86.0382 86.0995 85.0084 87.3623 85.0084ZM24.2824 73.4229C29.1741 73.4229 33.1385 77.4135 33.1385 82.3373C33.1385 87.2612 29.1741 91.2517 24.2824 91.2517C19.3908 91.2517 15.4263 87.2612 15.4263 82.3373C15.4263 77.4135 19.3908 73.4229 24.2824 73.4229ZM7.81705 49.7693C9.68739 49.7693 11.1901 51.2818 11.1901 53.1645C11.1901 55.0471 9.68739 56.5596 7.81705 56.5596C5.94671 56.5596 4.44405 55.0471 4.44405 53.1645C4.44405 51.2818 5.94671 49.7693 7.81705 49.7693ZM94.9876 28.8671C96.2504 28.8671 97.2735 29.897 97.2735 31.1681C97.2735 32.4393 96.2504 33.4692 94.9876 33.4692C93.7247 33.4692 92.7016 32.4393 92.7016 31.1681C92.7016 29.897 93.7247 28.8671 94.9876 28.8671ZM78.0266 11.5694C79.0977 11.5694 79.9609 12.4383 79.9609 13.5164C79.9609 14.5945 79.0977 15.4634 78.0266 15.4634C76.9556 15.4634 76.0924 14.5945 76.0924 13.5164C76.0924 12.4383 76.9556 11.5694 78.0266 11.5694ZM55.119 4.50546C57.2771 4.50546 59.0195 6.25937 59.0195 8.43165C59.0195 10.6039 57.2771 12.3578 55.119 12.3578C52.9609 12.3578 51.2185 10.6039 51.2185 8.43165C51.2185 6.25937 52.9609 4.50546 55.119 4.50546ZM30.0693 29.3338C29.5737 30.0418 28.9822 30.6693 28.3108 31.2164L33.1705 41.3698C33.9378 41.1928 34.7371 41.0963 35.5524 41.0963C39.1492 41.0963 42.3144 42.9306 44.1847 45.7304L53.3766 42.1261C53.3126 41.6433 53.2647 41.1445 53.2647 40.6457C53.2647 40.0825 53.3126 39.5354 53.3925 38.9883L43.2735 34.8047L30.0533 29.3338H30.0693ZM22.1883 18.3276C25.0977 18.3276 27.4636 20.709 27.4636 23.6376C27.4636 26.5661 25.0977 28.9476 22.1883 28.9476C19.2789 28.9476 16.913 26.5661 16.913 23.6376C16.913 20.709 19.2789 18.3276 22.1883 18.3276ZM84.0693 55.3206L70.7211 47.5165C69.1226 49.2383 66.9325 50.4129 64.4707 50.6865L62.9041 64.3798C64.4387 65.0074 65.7336 66.0694 66.6448 67.4371L83.4938 61.4191C83.3979 60.7916 83.3499 60.1479 83.3499 59.4882C83.3499 58.0239 83.6057 56.624 84.0693 55.3206ZM44.7762 56.4148L55.087 65.2005C56.0782 64.5247 57.2131 64.058 58.444 63.8649L60.0106 50.1715C57.9645 49.4474 56.222 48.0636 55.0231 46.2936L45.8472 49.9141C45.9272 50.4451 45.9751 50.9922 45.9751 51.5393C45.9751 53.2932 45.5435 54.9506 44.7762 56.4148ZM36.2718 76.5285L51.4103 72.0552C51.4103 70.8484 51.6981 69.6898 52.1616 68.66L41.8508 59.8744C40.1083 61.2099 37.9183 62.0145 35.5684 62.0145C35.0888 62.0145 34.6252 61.9823 34.1616 61.9179L30.9325 70.7358C33.2345 72.0713 35.1048 74.0988 36.2718 76.5285ZM52.5773 76.4319L37.5027 80.857C37.5506 81.3397 37.5826 81.8224 37.5826 82.3212C37.5826 89.707 31.6359 95.7089 24.2824 95.7089C16.929 95.7089 10.9822 89.7231 10.9822 82.3212C10.9822 74.9194 16.929 68.9336 24.2824 68.9336C25.1137 68.9336 25.929 69.014 26.7123 69.1588L29.9414 60.341C27.8313 58.9733 26.2647 56.8654 25.5613 54.3874L15.4263 54.9827C14.611 58.4423 11.5098 61.0168 7.81705 61.0168C3.50089 61.0168 0 57.4929 0 53.1484C0 48.8038 3.50089 45.2799 7.81705 45.2799C11.1901 45.2799 14.0675 47.4361 15.1705 50.4612L25.3055 49.8658C25.7211 47.2269 27.1279 44.9098 29.1261 43.3168L24.2664 33.1634C23.595 33.3082 22.9076 33.3887 22.1883 33.3887C16.817 33.3887 12.4689 29.012 12.4689 23.6054C12.4689 18.1988 16.817 13.8221 22.1883 13.8221C27.5595 13.8221 31.9076 18.1988 31.9076 23.6054C31.9076 24.1203 31.8597 24.6191 31.7957 25.118L45.1599 30.6371L55.087 34.8208C56.0142 33.4692 57.2771 32.3589 58.7318 31.6026L54.9592 16.7989C50.4352 16.7024 46.7904 12.9854 46.7904 8.39947C46.7904 3.81355 50.5311 0 55.135 0C59.7389 0 63.4796 3.76528 63.4796 8.39947C63.4796 11.505 61.8011 14.2244 59.3073 15.6726L63.0799 30.4762C63.1759 30.4762 63.2558 30.4762 63.3357 30.4762C64.2789 30.4762 65.1901 30.605 66.0533 30.8463L73.1829 17.6839C72.2238 16.5576 71.6323 15.0933 71.6323 13.4842C71.6323 9.9442 74.4938 7.06392 78.0107 7.06392C81.5275 7.06392 84.389 9.9442 84.389 13.4842C84.389 17.0242 81.5275 19.9045 78.0107 19.9045C77.7069 19.9045 77.4192 19.8884 77.1314 19.8401L70.0018 33.0025C70.833 33.7427 71.5364 34.6277 72.0959 35.6092L88.2416 30.782C88.4174 27.2098 91.3588 24.3617 94.9716 24.3617C98.5844 24.3617 101.702 27.4029 101.702 31.136C101.702 34.8691 98.6803 37.9102 94.9716 37.9102C92.7336 37.9102 90.7513 36.8161 89.5364 35.1265L73.3748 39.9538C73.3748 40.163 73.3908 40.3722 73.3908 40.5974C73.3908 41.6273 73.2309 42.641 72.9432 43.5743L86.3073 51.3784C88.5613 48.7234 91.9183 47.0499 95.659 47.0499C102.469 47.0499 108 52.6174 108 59.4721C108 66.3268 102.469 71.8943 95.659 71.8943C91.087 71.8943 87.0906 69.3841 84.9645 65.651L68.0675 71.6047C68.0675 71.7817 68.0835 71.9587 68.0835 72.1357C68.0835 72.7793 68.0036 73.4069 67.8757 74.0183L82.8544 82.2247C84.0533 81.1466 85.6199 80.4869 87.3464 80.4869C91.071 80.4869 94.0764 83.5281 94.0764 87.2611C94.0764 90.9942 91.0551 94.0354 87.3464 94.0354C83.6377 94.0354 80.6163 90.9942 80.6163 87.2611C80.6163 86.8911 80.6483 86.5371 80.6963 86.1992L65.7176 77.9767C64.1989 79.5536 62.0888 80.5191 59.7389 80.5191C59.579 80.5191 59.4352 80.5191 59.2913 80.5191L54.4156 94.9526C56.3499 96.3525 57.6128 98.6535 57.6128 101.244C57.6128 105.524 54.1599 109 49.9236 109C45.6874 109 42.2345 105.524 42.2345 101.244C42.2345 96.964 45.6714 93.5044 49.9236 93.5044C50.0035 93.5044 50.0835 93.5044 50.1634 93.5044L55.0391 79.0709C54.032 78.379 53.2007 77.4779 52.5773 76.4159M35.5684 45.5374C38.8615 45.5374 41.5151 48.2245 41.5151 51.5232C41.5151 54.8218 38.8455 57.509 35.5684 57.509C32.2913 57.509 29.6217 54.8218 29.6217 51.5232C29.6217 48.2245 32.2913 45.5374 35.5684 45.5374Z" fill="white"/>
</svg>
